<?xml version="1.0"?><svg xmlns="http://www.w3.org/2000/svg" version="1.1" width="120" height="60">


<defs><clipPath id="chart0-0"><rect x="-3.000000" y="-2.000000" width="6.000000" height="4.000000" /></clipPath></defs>
<g transform="translate(0.000000 60.000000) scale(20.000000 -15.000000) translate(3.000000 2.000000)">

<!-- Horiz labels -->
<line x1="-3.000000" y1="-2.000000" x2="-3.000000" y2="2.000000" style="stroke:#c0c0c0;stroke-width:0.010000"/>
<line x1="-2.500000" y1="-2.000000" x2="-2.500000" y2="2.000000" style="stroke:#c0c0c0;stroke-width:0.010000"/>
<line x1="-2.000000" y1="-2.000000" x2="-2.000000" y2="2.000000" style="stroke:#c0c0c0;stroke-width:0.010000"/>
<line x1="-1.500000" y1="-2.000000" x2="-1.500000" y2="2.000000" style="stroke:#c0c0c0;stroke-width:0.010000"/>
<line x1="-1.000000" y1="-2.000000" x2="-1.000000" y2="2.000000" style="stroke:#c0c0c0;stroke-width:0.010000"/>
<line x1="-0.500000" y1="-2.000000" x2="-0.500000" y2="2.000000" style="stroke:#c0c0c0;stroke-width:0.010000"/>
<line x1="0.000000" y1="-2.000000" x2="0.000000" y2="2.000000" style="stroke:#000000;stroke-width:0.010000"/>
<line x1="0.500000" y1="-2.000000" x2="0.500000" y2="2.000000" style="stroke:#c0c0c0;stroke-width:0.010000"/>
<line x1="1.000000" y1="-2.000000" x2="1.000000" y2="2.000000" style="stroke:#c0c0c0;stroke-width:0.010000"/>
<line x1="1.500000" y1="-2.000000" x2="1.500000" y2="2.000000" style="stroke:#c0c0c0;stroke-width:0.010000"/>
<line x1="2.000000" y1="-2.000000" x2="2.000000" y2="2.000000" style="stroke:#c0c0c0;stroke-width:0.010000"/>
<line x1="2.500000" y1="-2.000000" x2="2.500000" y2="2.000000" style="stroke:#c0c0c0;stroke-width:0.010000"/>
<line x1="3.000000" y1="-2.000000" x2="3.000000" y2="2.000000" style="stroke:#c0c0c0;stroke-width:0.010000"/>


<!-- Vert labels -->
<line x1="-3.000000" y1="-2.000000" x2="3.000000" y2="-2.000000" style="stroke:#c0c0c0;stroke-width:0.013333"/>
<line x1="-3.000000" y1="-1.000000" x2="3.000000" y2="-1.000000" style="stroke:#c0c0c0;stroke-width:0.013333"/>
<line x1="-3.000000" y1="0.000000" x2="3.000000" y2="0.000000" style="stroke:#000000;stroke-width:0.013333"/>
<line x1="-3.000000" y1="1.000000" x2="3.000000" y2="1.000000" style="stroke:#c0c0c0;stroke-width:0.013333"/>
<line x1="-3.000000" y1="2.000000" x2="3.000000" y2="2.000000" style="stroke:#c0c0c0;stroke-width:0.013333"/>


<!-- Clipped region -->
<g clip-path="url(#chart0-0)">
<line x1="-3.000000" y1="-0.950213" x2="-2.900000" y2="-0.944977" style="stroke:#7f0000;stroke-width:0.034595"/>
<line x1="-2.900000" y1="-0.944977" x2="-2.800000" y2="-0.939190" style="stroke:#7f0000;stroke-width:0.034722"/>
<line x1="-2.800000" y1="-0.939190" x2="-2.700000" y2="-0.932794" style="stroke:#7f0000;stroke-width:0.034861"/>
<line x1="-2.700000" y1="-0.932794" x2="-2.600000" y2="-0.925726" style="stroke:#7f0000;stroke-width:0.035013"/>
<line x1="-2.600000" y1="-0.925726" x2="-2.500000" y2="-0.917915" style="stroke:#7f0000;stroke-width:0.035179"/>
<line x1="-2.500000" y1="-0.917915" x2="-2.400000" y2="-0.909282" style="stroke:#7f0000;stroke-width:0.035360"/>
<line x1="-2.400000" y1="-0.909282" x2="-2.300000" y2="-0.899741" style="stroke:#7f0000;stroke-width:0.035557"/>
<line x1="-2.300000" y1="-0.899741" x2="-2.200000" y2="-0.889197" style="stroke:#7f0000;stroke-width:0.035771"/>
<line x1="-2.200000" y1="-0.889197" x2="-2.100000" y2="-0.877544" style="stroke:#7f0000;stroke-width:0.036003"/>
<line x1="-2.100000" y1="-0.877544" x2="-2.000000" y2="-0.864665" style="stroke:#7f0000;stroke-width:0.036254"/>
<line x1="-2.000000" y1="-0.864665" x2="-1.900000" y2="-0.850431" style="stroke:#7f0000;stroke-width:0.036524"/>
<line x1="-1.900000" y1="-0.850431" x2="-1.800000" y2="-0.834701" style="stroke:#7f0000;stroke-width:0.036813"/>
<line x1="-1.800000" y1="-0.834701" x2="-1.700000" y2="-0.817316" style="stroke:#7f0000;stroke-width:0.037123"/>
<line x1="-1.700000" y1="-0.817316" x2="-1.600000" y2="-0.798103" style="stroke:#7f0000;stroke-width:0.037452"/>
<line x1="-1.600000" y1="-0.798103" x2="-1.500000" y2="-0.776870" style="stroke:#7f0000;stroke-width:0.037799"/>
<line x1="-1.500000" y1="-0.776870" x2="-1.400000" y2="-0.753403" style="stroke:#7f0000;stroke-width:0.038163"/>
<line x1="-1.400000" y1="-0.753403" x2="-1.300000" y2="-0.727468" style="stroke:#7f0000;stroke-width:0.038542"/>
<line x1="-1.300000" y1="-0.727468" x2="-1.200000" y2="-0.698806" style="stroke:#7f0000;stroke-width:0.038931"/>
<line x1="-1.200000" y1="-0.698806" x2="-1.100000" y2="-0.667129" style="stroke:#7f0000;stroke-width:0.039327"/>
<line x1="-1.100000" y1="-0.667129" x2="-1.000000" y2="-0.632121" style="stroke:#7f0000;stroke-width:0.039722"/>
<line x1="-1.000000" y1="-0.632121" x2="-0.900000" y2="-0.593430" style="stroke:#7f0000;stroke-width:0.040109"/>
<line x1="-0.900000" y1="-0.593430" x2="-0.800000" y2="-0.550671" style="stroke:#7f0000;stroke-width:0.040478"/>
<line x1="-0.800000" y1="-0.550671" x2="-0.700000" y2="-0.503415" style="stroke:#7f0000;stroke-width:0.040819"/>
<line x1="-0.700000" y1="-0.503415" x2="-0.600000" y2="-0.451188" style="stroke:#7f0000;stroke-width:0.041120"/>
<line x1="-0.600000" y1="-0.451188" x2="-0.500000" y2="-0.393469" style="stroke:#7f0000;stroke-width:0.041367"/>
<line x1="-0.500000" y1="-0.393469" x2="-0.400000" y2="-0.329680" style="stroke:#7f0000;stroke-width:0.041547"/>
<line x1="-0.400000" y1="-0.329680" x2="-0.300000" y2="-0.259182" style="stroke:#7f0000;stroke-width:0.041649"/>
<line x1="-0.300000" y1="-0.259182" x2="-0.200000" y2="-0.181269" style="stroke:#7f0000;stroke-width:0.041660"/>
<line x1="-0.200000" y1="-0.181269" x2="-0.100000" y2="-0.095163" style="stroke:#7f0000;stroke-width:0.041572"/>
<line x1="-0.100000" y1="-0.095163" x2="0.000000" y2="0.000000" style="stroke:#7f0000;stroke-width:0.041381"/>
<line x1="0.000000" y1="0.000000" x2="0.100000" y2="0.100000" style="stroke:#7f0000;stroke-width:0.041248"/>
<line x1="0.100000" y1="0.100000" x2="0.200000" y2="0.200000" style="stroke:#7f0000;stroke-width:0.041248"/>
<line x1="0.200000" y1="0.200000" x2="0.300000" y2="0.300000" style="stroke:#7f0000;stroke-width:0.041248"/>
<line x1="0.300000" y1="0.300000" x2="0.400000" y2="0.400000" style="stroke:#7f0000;stroke-width:0.041248"/>
<line x1="0.400000" y1="0.400000" x2="0.500000" y2="0.500000" style="stroke:#7f0000;stroke-width:0.041248"/>
<line x1="0.500000" y1="0.500000" x2="0.600000" y2="0.600000" style="stroke:#7f0000;stroke-width:0.041248"/>
<line x1="0.600000" y1="0.600000" x2="0.700000" y2="0.700000" style="stroke:#7f0000;stroke-width:0.041248"/>
<line x1="0.700000" y1="0.700000" x2="0.800000" y2="0.800000" style="stroke:#7f0000;stroke-width:0.041248"/>
<line x1="0.800000" y1="0.800000" x2="0.900000" y2="0.900000" style="stroke:#7f0000;stroke-width:0.041248"/>
<line x1="0.900000" y1="0.900000" x2="1.000000" y2="1.000000" style="stroke:#7f0000;stroke-width:0.041248"/>
<line x1="1.000000" y1="1.000000" x2="1.100000" y2="1.100000" style="stroke:#7f0000;stroke-width:0.041248"/>
<line x1="1.100000" y1="1.100000" x2="1.200000" y2="1.200000" style="stroke:#7f0000;stroke-width:0.041248"/>
<line x1="1.200000" y1="1.200000" x2="1.300000" y2="1.300000" style="stroke:#7f0000;stroke-width:0.041248"/>
<line x1="1.300000" y1="1.300000" x2="1.400000" y2="1.400000" style="stroke:#7f0000;stroke-width:0.041248"/>
<line x1="1.400000" y1="1.400000" x2="1.500000" y2="1.500000" style="stroke:#7f0000;stroke-width:0.041248"/>
<line x1="1.500000" y1="1.500000" x2="1.600000" y2="1.600000" style="stroke:#7f0000;stroke-width:0.041248"/>
<line x1="1.600000" y1="1.600000" x2="1.700000" y2="1.700000" style="stroke:#7f0000;stroke-width:0.041248"/>
<line x1="1.700000" y1="1.700000" x2="1.800000" y2="1.800000" style="stroke:#7f0000;stroke-width:0.041248"/>
<line x1="1.800000" y1="1.800000" x2="1.900000" y2="1.900000" style="stroke:#7f0000;stroke-width:0.041248"/>
<line x1="1.900000" y1="1.900000" x2="2.000000" y2="2.000000" style="stroke:#7f0000;stroke-width:0.041248"/>
<line x1="2.000000" y1="2.000000" x2="2.100000" y2="2.100000" style="stroke:#7f0000;stroke-width:0.041248"/>
<line x1="2.100000" y1="2.100000" x2="2.200000" y2="2.200000" style="stroke:#7f0000;stroke-width:0.041248"/>
<line x1="2.200000" y1="2.200000" x2="2.300000" y2="2.300000" style="stroke:#7f0000;stroke-width:0.041248"/>
<line x1="2.300000" y1="2.300000" x2="2.400000" y2="2.400000" style="stroke:#7f0000;stroke-width:0.041248"/>
<line x1="2.400000" y1="2.400000" x2="2.500000" y2="2.500000" style="stroke:#7f0000;stroke-width:0.041248"/>
<line x1="2.500000" y1="2.500000" x2="2.600000" y2="2.600000" style="stroke:#7f0000;stroke-width:0.041248"/>
<line x1="2.600000" y1="2.600000" x2="2.700000" y2="2.700000" style="stroke:#7f0000;stroke-width:0.041248"/>
<line x1="2.700000" y1="2.700000" x2="2.800000" y2="2.800000" style="stroke:#7f0000;stroke-width:0.041248"/>
<line x1="2.800000" y1="2.800000" x2="2.900000" y2="2.900000" style="stroke:#7f0000;stroke-width:0.041248"/>
<line x1="2.900000" y1="2.900000" x2="3.000000" y2="3.000000" style="stroke:#7f0000;stroke-width:0.041248"/>
</g></g>

</svg>
