<?xml version="1.0" encoding="UTF-8"?>
<svg xmlns="http://www.w3.org/2000/svg" xmlns:xlink="http://www.w3.org/1999/xlink" width="340" height="109.333333" viewBox="0 0 340 109.333333" version="1.1">
<g id="surface1">
<path style=" stroke:none;fill-rule:nonzero;fill:rgb(0%,0%,0%);fill-opacity:1;" d="M 15.699219 18.082031 C 16 18.082031 16.21875 18.140625 16.34375 18.25 C 16.480469 18.347656 16.550781 18.511719 16.550781 18.730469 C 16.550781 18.953125 16.488281 19.121094 16.363281 19.230469 C 16.238281 19.328125 16.042969 19.375 15.78125 19.375 L 12.09375 19.375 L 12.09375 22.417969 C 12.09375 23.417969 12.21875 24.078125 12.46875 24.394531 C 12.730469 24.703125 13.183594 24.855469 13.824219 24.855469 C 14.363281 24.855469 15.015625 24.699219 15.78125 24.375 C 16.558594 24.058594 17.042969 23.894531 17.238281 23.894531 C 17.40625 23.894531 17.542969 23.957031 17.65625 24.082031 C 17.78125 24.199219 17.84375 24.34375 17.84375 24.519531 C 17.84375 24.730469 17.765625 24.910156 17.613281 25.0625 C 17.457031 25.203125 17.207031 25.34375 16.863281 25.480469 C 16.265625 25.71875 15.722656 25.890625 15.238281 26 C 14.765625 26.109375 14.324219 26.167969 13.90625 26.167969 C 13.199219 26.167969 12.597656 26.050781 12.113281 25.832031 C 11.625 25.597656 11.265625 25.261719 11.03125 24.8125 C 10.90625 24.59375 10.8125 24.332031 10.761719 24.042969 C 10.71875 23.75 10.699219 23.308594 10.699219 22.707031 L 10.699219 19.375 L 9.15625 19.375 C 8.890625 19.375 8.703125 19.328125 8.59375 19.230469 C 8.480469 19.121094 8.425781 18.953125 8.425781 18.730469 C 8.425781 18.480469 8.5 18.3125 8.65625 18.230469 C 8.808594 18.136719 9.140625 18.082031 9.65625 18.082031 L 10.699219 18.082031 L 10.699219 15.730469 C 10.699219 15.480469 10.75 15.292969 10.863281 15.167969 C 10.972656 15.042969 11.144531 14.980469 11.386719 14.980469 C 11.644531 14.980469 11.828125 15.058594 11.925781 15.207031 C 12.035156 15.347656 12.09375 15.6875 12.09375 16.230469 L 12.09375 18.082031 Z M 15.699219 18.082031 "/>
<path style=" stroke:none;fill-rule:nonzero;fill:rgb(0%,0%,0%);fill-opacity:1;" d="M 20.984375 24.707031 L 20.984375 15.375 L 20.816406 15.375 C 20.398438 15.375 20.113281 15.328125 19.960938 15.230469 C 19.804688 15.136719 19.734375 14.96875 19.734375 14.730469 C 19.734375 14.511719 19.796875 14.34375 19.921875 14.230469 C 20.046875 14.121094 20.222656 14.0625 20.460938 14.0625 L 21.835938 14.0625 C 22.003906 14.0625 22.128906 14.097656 22.210938 14.167969 C 22.304688 14.238281 22.359375 14.328125 22.359375 14.4375 L 22.359375 18.5625 C 22.800781 18.160156 23.238281 17.863281 23.671875 17.667969 C 24.113281 17.457031 24.566406 17.355469 25.023438 17.355469 C 25.941406 17.355469 26.660156 17.640625 27.191406 18.207031 C 27.71875 18.78125 27.984375 19.574219 27.984375 20.582031 L 27.984375 24.707031 L 28.421875 24.707031 C 28.722656 24.707031 28.941406 24.765625 29.066406 24.875 C 29.203125 24.972656 29.273438 25.125 29.273438 25.332031 C 29.273438 25.558594 29.210938 25.722656 29.085938 25.832031 C 28.960938 25.949219 28.78125 26 28.546875 26 L 26.109375 26 C 25.828125 26 25.632812 25.953125 25.523438 25.855469 C 25.425781 25.761719 25.378906 25.582031 25.378906 25.332031 C 25.378906 25.097656 25.441406 24.9375 25.566406 24.855469 C 25.691406 24.761719 25.925781 24.707031 26.273438 24.707031 L 26.609375 24.707031 L 26.609375 20.917969 C 26.609375 20.207031 26.441406 19.667969 26.109375 19.292969 C 25.785156 18.917969 25.320312 18.730469 24.710938 18.730469 C 24.085938 18.730469 23.535156 18.949219 23.066406 19.375 C 22.59375 19.792969 22.359375 20.308594 22.359375 20.917969 L 22.359375 24.707031 L 22.691406 24.707031 C 23.050781 24.707031 23.296875 24.761719 23.421875 24.855469 C 23.546875 24.9375 23.609375 25.097656 23.609375 25.332031 C 23.609375 25.582031 23.554688 25.761719 23.460938 25.855469 C 23.363281 25.953125 23.171875 26 22.878906 26 L 20.460938 26 C 20.222656 26 20.046875 25.949219 19.921875 25.832031 C 19.804688 25.722656 19.753906 25.558594 19.753906 25.332031 C 19.753906 25.097656 19.820312 24.9375 19.960938 24.855469 C 20.097656 24.761719 20.378906 24.707031 20.796875 24.707031 Z M 20.984375 24.707031 "/>
<path style=" stroke:none;fill-rule:nonzero;fill:rgb(0%,0%,0%);fill-opacity:1;" d="M 32.539062 22.1875 C 32.582031 23.0625 32.871094 23.746094 33.414062 24.230469 C 33.964844 24.703125 34.710938 24.9375 35.644531 24.9375 C 36.363281 24.9375 37.144531 24.75 37.976562 24.375 C 38.808594 23.988281 39.316406 23.792969 39.496094 23.792969 C 39.675781 23.792969 39.832031 23.855469 39.957031 23.980469 C 40.082031 24.09375 40.144531 24.230469 40.144531 24.394531 C 40.144531 24.578125 40.070312 24.746094 39.933594 24.894531 C 39.808594 25.035156 39.605469 25.175781 39.332031 25.3125 C 38.714844 25.605469 38.085938 25.832031 37.433594 26 C 36.792969 26.152344 36.152344 26.230469 35.519531 26.230469 C 34.144531 26.230469 33.039062 25.832031 32.207031 25.042969 C 31.371094 24.238281 30.957031 23.175781 30.957031 21.855469 C 30.957031 20.511719 31.394531 19.417969 32.269531 18.582031 C 33.152344 17.75 34.300781 17.332031 35.707031 17.332031 C 36.996094 17.332031 38.058594 17.722656 38.894531 18.5 C 39.738281 19.28125 40.164062 20.222656 40.164062 21.332031 C 40.164062 21.667969 40.089844 21.894531 39.957031 22.019531 C 39.816406 22.136719 39.425781 22.1875 38.789062 22.1875 Z M 32.582031 21 L 38.519531 21 C 38.417969 20.28125 38.113281 19.699219 37.601562 19.25 C 37.085938 18.808594 36.457031 18.582031 35.707031 18.582031 C 34.898438 18.582031 34.214844 18.800781 33.664062 19.230469 C 33.121094 19.660156 32.757812 20.25 32.582031 21 Z M 32.582031 21 "/>
<path style=" stroke:none;fill-rule:nonzero;fill:rgb(0%,0%,0%);fill-opacity:1;" d="M 60.503906 18.082031 C 60.808594 18.082031 61.027344 18.140625 61.152344 18.25 C 61.285156 18.347656 61.359375 18.511719 61.359375 18.730469 C 61.359375 18.953125 61.296875 19.121094 61.171875 19.230469 C 61.046875 19.328125 60.847656 19.375 60.589844 19.375 L 56.902344 19.375 L 56.902344 22.417969 C 56.902344 23.417969 57.027344 24.078125 57.277344 24.394531 C 57.535156 24.703125 57.988281 24.855469 58.628906 24.855469 C 59.171875 24.855469 59.824219 24.699219 60.589844 24.375 C 61.363281 24.058594 61.847656 23.894531 62.046875 23.894531 C 62.214844 23.894531 62.347656 23.957031 62.464844 24.082031 C 62.589844 24.199219 62.652344 24.34375 62.652344 24.519531 C 62.652344 24.730469 62.574219 24.910156 62.421875 25.0625 C 62.265625 25.203125 62.015625 25.34375 61.671875 25.480469 C 61.074219 25.71875 60.53125 25.890625 60.046875 26 C 59.574219 26.109375 59.128906 26.167969 58.714844 26.167969 C 58.003906 26.167969 57.40625 26.050781 56.921875 25.832031 C 56.433594 25.597656 56.074219 25.261719 55.839844 24.8125 C 55.714844 24.59375 55.621094 24.332031 55.566406 24.042969 C 55.527344 23.75 55.503906 23.308594 55.503906 22.707031 L 55.503906 19.375 L 53.964844 19.375 C 53.699219 19.375 53.511719 19.328125 53.402344 19.230469 C 53.285156 19.121094 53.234375 18.953125 53.234375 18.730469 C 53.234375 18.480469 53.308594 18.3125 53.464844 18.230469 C 53.613281 18.136719 53.949219 18.082031 54.464844 18.082031 L 55.503906 18.082031 L 55.503906 15.730469 C 55.503906 15.480469 55.558594 15.292969 55.671875 15.167969 C 55.78125 15.042969 55.953125 14.980469 56.191406 14.980469 C 56.453125 14.980469 56.636719 15.058594 56.734375 15.207031 C 56.84375 15.347656 56.902344 15.6875 56.902344 16.230469 L 56.902344 18.082031 Z M 60.503906 18.082031 "/>
<path style=" stroke:none;fill-rule:nonzero;fill:rgb(0%,0%,0%);fill-opacity:1;" d="M 68.375 14.957031 C 68.375 14.292969 68.425781 13.875 68.539062 13.707031 C 68.664062 13.542969 68.921875 13.457031 69.3125 13.457031 C 69.695312 13.457031 69.945312 13.535156 70.0625 13.6875 C 70.1875 13.828125 70.25 14.160156 70.25 14.6875 C 70.25 15.21875 70.191406 15.542969 70.082031 15.667969 C 69.96875 15.792969 69.710938 15.855469 69.3125 15.855469 C 68.921875 15.855469 68.664062 15.800781 68.539062 15.6875 C 68.425781 15.5625 68.375 15.324219 68.375 14.957031 Z M 70.0625 24.707031 L 73 24.707031 C 73.234375 24.707031 73.40625 24.765625 73.519531 24.875 C 73.628906 24.972656 73.6875 25.125 73.6875 25.332031 C 73.6875 25.582031 73.628906 25.761719 73.519531 25.855469 C 73.421875 25.953125 73.226562 26 72.9375 26 L 65.875 26 C 65.625 26 65.4375 25.949219 65.3125 25.832031 C 65.195312 25.722656 65.144531 25.558594 65.144531 25.332031 C 65.144531 25.125 65.207031 24.972656 65.332031 24.875 C 65.457031 24.765625 65.644531 24.707031 65.894531 24.707031 L 68.6875 24.707031 L 68.6875 18.875 L 66.914062 18.875 C 66.664062 18.875 66.46875 18.824219 66.332031 18.707031 C 66.207031 18.597656 66.144531 18.433594 66.144531 18.207031 C 66.144531 18 66.195312 17.847656 66.3125 17.75 C 66.4375 17.640625 66.625 17.582031 66.875 17.582031 L 69.539062 17.582031 C 69.707031 17.582031 69.832031 17.621094 69.914062 17.6875 C 70.007812 17.746094 70.0625 17.832031 70.0625 17.957031 Z M 70.0625 24.707031 "/>
<path style=" stroke:none;fill-rule:nonzero;fill:rgb(0%,0%,0%);fill-opacity:1;" d="M 83.804688 20.917969 C 83.804688 20.074219 83.726562 19.496094 83.574219 19.1875 C 83.417969 18.886719 83.160156 18.730469 82.785156 18.730469 C 82.324219 18.730469 81.960938 18.925781 81.699219 19.3125 C 81.433594 19.703125 81.304688 20.238281 81.304688 20.917969 L 81.304688 24.707031 L 81.472656 24.707031 C 81.847656 24.707031 82.097656 24.761719 82.222656 24.855469 C 82.347656 24.9375 82.410156 25.097656 82.410156 25.332031 C 82.410156 25.558594 82.351562 25.722656 82.242188 25.832031 C 82.144531 25.949219 81.980469 26 81.761719 26 L 80.617188 26 C 80.351562 26 80.167969 25.9375 80.074219 25.8125 C 79.976562 25.6875 79.929688 25.433594 79.929688 25.042969 L 79.929688 20.207031 C 79.929688 19.75 79.824219 19.390625 79.617188 19.125 C 79.417969 18.863281 79.144531 18.730469 78.785156 18.730469 C 78.503906 18.730469 78.246094 18.8125 78.011719 18.980469 C 77.789062 19.136719 77.601562 19.371094 77.449219 19.6875 L 77.449219 24.707031 L 77.785156 24.707031 C 78.144531 24.707031 78.386719 24.761719 78.511719 24.855469 C 78.636719 24.9375 78.699219 25.097656 78.699219 25.332031 C 78.699219 25.582031 78.648438 25.761719 78.554688 25.855469 C 78.457031 25.953125 78.261719 26 77.972656 26 L 75.535156 26 C 75.292969 26 75.121094 25.953125 75.011719 25.855469 C 74.898438 25.746094 74.847656 25.574219 74.847656 25.332031 C 74.847656 25.097656 74.914062 24.9375 75.054688 24.855469 C 75.191406 24.761719 75.472656 24.707031 75.886719 24.707031 L 76.074219 24.707031 L 76.074219 18.875 L 75.910156 18.875 C 75.476562 18.875 75.183594 18.828125 75.035156 18.730469 C 74.878906 18.636719 74.804688 18.457031 74.804688 18.207031 C 74.804688 18 74.867188 17.847656 74.992188 17.75 C 75.117188 17.640625 75.292969 17.582031 75.535156 17.582031 L 76.929688 17.582031 C 77.136719 17.582031 77.269531 17.621094 77.324219 17.6875 C 77.394531 17.761719 77.433594 17.90625 77.449219 18.125 C 77.699219 17.863281 77.960938 17.667969 78.242188 17.542969 C 78.535156 17.40625 78.851562 17.332031 79.199219 17.332031 C 79.628906 17.332031 79.980469 17.433594 80.261719 17.625 C 80.539062 17.808594 80.746094 18.082031 80.886719 18.457031 C 81.136719 18.082031 81.429688 17.808594 81.761719 17.625 C 82.097656 17.433594 82.476562 17.332031 82.910156 17.332031 C 83.699219 17.332031 84.273438 17.59375 84.636719 18.105469 C 84.996094 18.621094 85.179688 19.449219 85.179688 20.582031 L 85.179688 24.707031 L 85.324219 24.707031 C 85.699219 24.707031 85.949219 24.761719 86.074219 24.855469 C 86.199219 24.9375 86.261719 25.097656 86.261719 25.332031 C 86.261719 25.558594 86.207031 25.722656 86.097656 25.832031 C 85.980469 25.949219 85.824219 26 85.617188 26 L 84.511719 26 C 84.273438 26 84.097656 25.933594 83.972656 25.792969 C 83.855469 25.640625 83.804688 25.40625 83.804688 25.082031 Z M 83.804688 20.917969 "/>
<path style=" stroke:none;fill-rule:nonzero;fill:rgb(0%,0%,0%);fill-opacity:1;" d="M 88.550781 22.1875 C 88.589844 23.0625 88.882812 23.746094 89.425781 24.230469 C 89.976562 24.703125 90.722656 24.9375 91.652344 24.9375 C 92.371094 24.9375 93.152344 24.75 93.988281 24.375 C 94.820312 23.988281 95.324219 23.792969 95.507812 23.792969 C 95.683594 23.792969 95.839844 23.855469 95.964844 23.980469 C 96.089844 24.09375 96.152344 24.230469 96.152344 24.394531 C 96.152344 24.578125 96.082031 24.746094 95.945312 24.894531 C 95.820312 25.035156 95.617188 25.175781 95.339844 25.3125 C 94.726562 25.605469 94.097656 25.832031 93.445312 26 C 92.804688 26.152344 92.164062 26.230469 91.527344 26.230469 C 90.152344 26.230469 89.050781 25.832031 88.214844 25.042969 C 87.382812 24.238281 86.964844 23.175781 86.964844 21.855469 C 86.964844 20.511719 87.402344 19.417969 88.277344 18.582031 C 89.164062 17.75 90.308594 17.332031 91.714844 17.332031 C 93.007812 17.332031 94.070312 17.722656 94.902344 18.5 C 95.746094 19.28125 96.175781 20.222656 96.175781 21.332031 C 96.175781 21.667969 96.101562 21.894531 95.964844 22.019531 C 95.824219 22.136719 95.433594 22.1875 94.800781 22.1875 Z M 88.589844 21 L 94.527344 21 C 94.429688 20.28125 94.121094 19.699219 93.613281 19.25 C 93.097656 18.808594 92.464844 18.582031 91.714844 18.582031 C 90.910156 18.582031 90.226562 18.800781 89.675781 19.230469 C 89.132812 19.660156 88.769531 20.25 88.589844 21 Z M 88.589844 21 "/>
<path style=" stroke:none;fill-rule:nonzero;fill:rgb(0%,0%,0%);fill-opacity:1;" d="M 117.410156 20.917969 C 117.410156 20.074219 117.332031 19.496094 117.183594 19.1875 C 117.027344 18.886719 116.765625 18.730469 116.390625 18.730469 C 115.933594 18.730469 115.566406 18.925781 115.308594 19.3125 C 115.042969 19.703125 114.910156 20.238281 114.910156 20.917969 L 114.910156 24.707031 L 115.078125 24.707031 C 115.453125 24.707031 115.703125 24.761719 115.828125 24.855469 C 115.953125 24.9375 116.015625 25.097656 116.015625 25.332031 C 116.015625 25.558594 115.957031 25.722656 115.847656 25.832031 C 115.75 25.949219 115.589844 26 115.371094 26 L 114.222656 26 C 113.957031 26 113.777344 25.9375 113.683594 25.8125 C 113.582031 25.6875 113.535156 25.433594 113.535156 25.042969 L 113.535156 20.207031 C 113.535156 19.75 113.433594 19.390625 113.222656 19.125 C 113.027344 18.863281 112.75 18.730469 112.390625 18.730469 C 112.109375 18.730469 111.855469 18.8125 111.621094 18.980469 C 111.394531 19.136719 111.207031 19.371094 111.058594 19.6875 L 111.058594 24.707031 L 111.390625 24.707031 C 111.75 24.707031 111.996094 24.761719 112.121094 24.855469 C 112.246094 24.9375 112.308594 25.097656 112.308594 25.332031 C 112.308594 25.582031 112.253906 25.761719 112.160156 25.855469 C 112.0625 25.953125 111.871094 26 111.578125 26 L 109.140625 26 C 108.902344 26 108.730469 25.953125 108.621094 25.855469 C 108.503906 25.746094 108.453125 25.574219 108.453125 25.332031 C 108.453125 25.097656 108.519531 24.9375 108.660156 24.855469 C 108.796875 24.761719 109.078125 24.707031 109.496094 24.707031 L 109.683594 24.707031 L 109.683594 18.875 L 109.515625 18.875 C 109.082031 18.875 108.792969 18.828125 108.640625 18.730469 C 108.484375 18.636719 108.410156 18.457031 108.410156 18.207031 C 108.410156 18 108.472656 17.847656 108.597656 17.75 C 108.722656 17.640625 108.902344 17.582031 109.140625 17.582031 L 110.535156 17.582031 C 110.746094 17.582031 110.875 17.621094 110.933594 17.6875 C 111 17.761719 111.042969 17.90625 111.058594 18.125 C 111.308594 17.863281 111.566406 17.667969 111.847656 17.542969 C 112.140625 17.40625 112.457031 17.332031 112.808594 17.332031 C 113.234375 17.332031 113.589844 17.433594 113.871094 17.625 C 114.144531 17.808594 114.355469 18.082031 114.496094 18.457031 C 114.746094 18.082031 115.035156 17.808594 115.371094 17.625 C 115.703125 17.433594 116.082031 17.332031 116.515625 17.332031 C 117.308594 17.332031 117.878906 17.59375 118.246094 18.105469 C 118.605469 18.621094 118.785156 19.449219 118.785156 20.582031 L 118.785156 24.707031 L 118.933594 24.707031 C 119.308594 24.707031 119.558594 24.761719 119.683594 24.855469 C 119.808594 24.9375 119.871094 25.097656 119.871094 25.332031 C 119.871094 25.558594 119.8125 25.722656 119.703125 25.832031 C 119.589844 25.949219 119.433594 26 119.222656 26 L 118.121094 26 C 117.878906 26 117.703125 25.933594 117.578125 25.792969 C 117.464844 25.640625 117.410156 25.40625 117.410156 25.082031 Z M 117.410156 20.917969 "/>
<path style=" stroke:none;fill-rule:nonzero;fill:rgb(0%,0%,0%);fill-opacity:1;" d="M 127.257812 21.980469 C 126.925781 21.871094 126.597656 21.785156 126.28125 21.730469 C 125.972656 21.675781 125.660156 21.644531 125.34375 21.644531 C 124.410156 21.644531 123.675781 21.808594 123.132812 22.125 C 122.59375 22.449219 122.320312 22.871094 122.320312 23.394531 C 122.320312 23.8125 122.488281 24.160156 122.820312 24.4375 C 123.164062 24.703125 123.597656 24.832031 124.113281 24.832031 C 124.890625 24.832031 125.601562 24.636719 126.257812 24.230469 C 126.925781 23.8125 127.257812 23.390625 127.257812 22.957031 Z M 127.320312 24.832031 C 126.820312 25.292969 126.28125 25.640625 125.695312 25.875 C 125.113281 26.109375 124.507812 26.230469 123.882812 26.230469 C 122.976562 26.230469 122.25 25.980469 121.695312 25.480469 C 121.140625 24.96875 120.863281 24.308594 120.863281 23.5 C 120.863281 22.542969 121.226562 21.800781 121.96875 21.269531 C 122.703125 20.746094 123.742188 20.480469 125.09375 20.480469 C 125.4375 20.480469 125.789062 20.5 126.15625 20.542969 C 126.515625 20.582031 126.882812 20.65625 127.257812 20.75 L 127.257812 20.6875 C 127.257812 19.996094 127.09375 19.480469 126.757812 19.144531 C 126.425781 18.8125 125.90625 18.644531 125.195312 18.644531 C 124.722656 18.644531 124.195312 18.78125 123.613281 19.042969 C 123.03125 19.292969 122.640625 19.417969 122.445312 19.417969 C 122.28125 19.417969 122.132812 19.347656 122.007812 19.207031 C 121.894531 19.058594 121.84375 18.871094 121.84375 18.644531 C 121.84375 18.285156 122.175781 17.980469 122.84375 17.730469 C 123.519531 17.480469 124.382812 17.355469 125.425781 17.355469 C 126.492188 17.355469 127.300781 17.636719 127.84375 18.1875 C 128.394531 18.730469 128.675781 19.53125 128.675781 20.582031 L 128.675781 24.707031 L 129.113281 24.707031 C 129.539062 24.707031 129.828125 24.761719 129.96875 24.855469 C 130.117188 24.9375 130.195312 25.097656 130.195312 25.332031 C 130.195312 25.558594 130.132812 25.722656 130.007812 25.832031 C 129.894531 25.949219 129.71875 26 129.46875 26 L 128.03125 26 C 127.863281 26 127.722656 25.953125 127.613281 25.855469 C 127.5 25.746094 127.429688 25.59375 127.40625 25.394531 Z M 127.320312 24.832031 "/>
<path style=" stroke:none;fill-rule:nonzero;fill:rgb(0%,0%,0%);fill-opacity:1;" d="M 139.167969 18.125 L 139.167969 18.082031 C 139.167969 17.890625 139.222656 17.746094 139.335938 17.644531 C 139.460938 17.550781 139.636719 17.5 139.878906 17.5 C 140.128906 17.5 140.300781 17.578125 140.398438 17.730469 C 140.492188 17.871094 140.542969 18.167969 140.542969 18.625 L 140.542969 20.3125 C 140.542969 20.550781 140.480469 20.722656 140.355469 20.832031 C 140.242188 20.949219 140.074219 21 139.855469 21 C 139.691406 21 139.542969 20.953125 139.417969 20.855469 C 139.304688 20.761719 139.167969 20.5625 139.003906 20.269531 C 138.710938 19.769531 138.355469 19.394531 137.941406 19.144531 C 137.523438 18.894531 137.042969 18.769531 136.503906 18.769531 C 135.542969 18.769531 134.761719 19.058594 134.167969 19.625 C 133.585938 20.183594 133.292969 20.894531 133.292969 21.769531 C 133.292969 22.6875 133.574219 23.433594 134.148438 24 C 134.714844 24.574219 135.445312 24.855469 136.335938 24.855469 C 136.753906 24.855469 137.136719 24.800781 137.503906 24.6875 C 137.878906 24.578125 138.222656 24.410156 138.542969 24.1875 C 138.652344 24.121094 138.804688 24.011719 139.003906 23.855469 C 139.402344 23.535156 139.714844 23.375 139.941406 23.375 C 140.132812 23.375 140.285156 23.4375 140.398438 23.5625 C 140.523438 23.675781 140.585938 23.824219 140.585938 24 C 140.585938 24.488281 140.128906 24.980469 139.210938 25.480469 C 138.304688 25.980469 137.339844 26.230469 136.316406 26.230469 C 134.992188 26.230469 133.898438 25.808594 133.023438 24.957031 C 132.148438 24.113281 131.710938 23.058594 131.710938 21.792969 C 131.710938 20.53125 132.148438 19.472656 133.023438 18.625 C 133.898438 17.78125 134.992188 17.355469 136.316406 17.355469 C 136.773438 17.355469 137.230469 17.417969 137.691406 17.542969 C 138.160156 17.667969 138.652344 17.863281 139.167969 18.125 Z M 139.167969 18.125 "/>
<path style=" stroke:none;fill-rule:nonzero;fill:rgb(0%,0%,0%);fill-opacity:1;" d="M 144.203125 24.707031 L 144.203125 15.375 L 144.039062 15.375 C 143.621094 15.375 143.335938 15.328125 143.183594 15.230469 C 143.027344 15.136719 142.953125 14.96875 142.953125 14.730469 C 142.953125 14.511719 143.015625 14.34375 143.140625 14.230469 C 143.265625 14.121094 143.445312 14.0625 143.683594 14.0625 L 145.058594 14.0625 C 145.226562 14.0625 145.351562 14.097656 145.433594 14.167969 C 145.527344 14.238281 145.578125 14.328125 145.578125 14.4375 L 145.578125 18.5625 C 146.023438 18.160156 146.460938 17.863281 146.890625 17.667969 C 147.335938 17.457031 147.789062 17.355469 148.246094 17.355469 C 149.164062 17.355469 149.882812 17.640625 150.414062 18.207031 C 150.9375 18.78125 151.203125 19.574219 151.203125 20.582031 L 151.203125 24.707031 L 151.640625 24.707031 C 151.945312 24.707031 152.164062 24.765625 152.289062 24.875 C 152.421875 24.972656 152.496094 25.125 152.496094 25.332031 C 152.496094 25.558594 152.433594 25.722656 152.308594 25.832031 C 152.183594 25.949219 152 26 151.765625 26 L 149.328125 26 C 149.046875 26 148.855469 25.953125 148.746094 25.855469 C 148.648438 25.761719 148.601562 25.582031 148.601562 25.332031 C 148.601562 25.097656 148.664062 24.9375 148.789062 24.855469 C 148.914062 24.761719 149.148438 24.707031 149.496094 24.707031 L 149.828125 24.707031 L 149.828125 20.917969 C 149.828125 20.207031 149.664062 19.667969 149.328125 19.292969 C 149.007812 18.917969 148.542969 18.730469 147.933594 18.730469 C 147.308594 18.730469 146.757812 18.949219 146.289062 19.375 C 145.8125 19.792969 145.578125 20.308594 145.578125 20.917969 L 145.578125 24.707031 L 145.914062 24.707031 C 146.273438 24.707031 146.515625 24.761719 146.640625 24.855469 C 146.765625 24.9375 146.828125 25.097656 146.828125 25.332031 C 146.828125 25.582031 146.777344 25.761719 146.683594 25.855469 C 146.585938 25.953125 146.390625 26 146.101562 26 L 143.683594 26 C 143.445312 26 143.265625 25.949219 143.140625 25.832031 C 143.027344 25.722656 142.976562 25.558594 142.976562 25.332031 C 142.976562 25.097656 143.042969 24.9375 143.183594 24.855469 C 143.320312 24.761719 143.601562 24.707031 144.015625 24.707031 Z M 144.203125 24.707031 "/>
<path style=" stroke:none;fill-rule:nonzero;fill:rgb(0%,0%,0%);fill-opacity:1;" d="M 157.988281 14.957031 C 157.988281 14.292969 158.042969 13.875 158.15625 13.707031 C 158.28125 13.542969 158.535156 13.457031 158.925781 13.457031 C 159.3125 13.457031 159.5625 13.535156 159.675781 13.6875 C 159.800781 13.828125 159.863281 14.160156 159.863281 14.6875 C 159.863281 15.21875 159.808594 15.542969 159.699219 15.667969 C 159.582031 15.792969 159.328125 15.855469 158.925781 15.855469 C 158.535156 15.855469 158.28125 15.800781 158.15625 15.6875 C 158.042969 15.5625 157.988281 15.324219 157.988281 14.957031 Z M 159.675781 24.707031 L 162.613281 24.707031 C 162.847656 24.707031 163.019531 24.765625 163.136719 24.875 C 163.246094 24.972656 163.300781 25.125 163.300781 25.332031 C 163.300781 25.582031 163.246094 25.761719 163.136719 25.855469 C 163.035156 25.953125 162.84375 26 162.550781 26 L 155.488281 26 C 155.238281 26 155.050781 25.949219 154.925781 25.832031 C 154.8125 25.722656 154.761719 25.558594 154.761719 25.332031 C 154.761719 25.125 154.824219 24.972656 154.949219 24.875 C 155.074219 24.765625 155.261719 24.707031 155.511719 24.707031 L 158.300781 24.707031 L 158.300781 18.875 L 156.53125 18.875 C 156.28125 18.875 156.082031 18.824219 155.949219 18.707031 C 155.824219 18.597656 155.761719 18.433594 155.761719 18.207031 C 155.761719 18 155.8125 17.847656 155.925781 17.75 C 156.050781 17.640625 156.238281 17.582031 156.488281 17.582031 L 159.15625 17.582031 C 159.324219 17.582031 159.449219 17.621094 159.53125 17.6875 C 159.625 17.746094 159.675781 17.832031 159.675781 17.957031 Z M 159.675781 24.707031 "/>
<path style=" stroke:none;fill-rule:nonzero;fill:rgb(0%,0%,0%);fill-opacity:1;" d="M 166.648438 24.707031 L 166.648438 18.875 L 166.484375 18.875 C 166.066406 18.875 165.78125 18.828125 165.628906 18.730469 C 165.472656 18.636719 165.398438 18.457031 165.398438 18.207031 C 165.398438 17.988281 165.460938 17.828125 165.585938 17.730469 C 165.710938 17.636719 165.910156 17.582031 166.191406 17.582031 L 167.503906 17.582031 C 167.671875 17.582031 167.796875 17.621094 167.878906 17.6875 C 167.972656 17.746094 168.023438 17.832031 168.023438 17.957031 L 168.023438 18.5625 C 168.46875 18.160156 168.90625 17.863281 169.335938 17.667969 C 169.765625 17.457031 170.21875 17.355469 170.691406 17.355469 C 171.609375 17.355469 172.328125 17.640625 172.859375 18.207031 C 173.382812 18.78125 173.648438 19.574219 173.648438 20.582031 L 173.648438 24.707031 L 174.066406 24.707031 C 174.367188 24.707031 174.59375 24.765625 174.734375 24.875 C 174.867188 24.972656 174.941406 25.125 174.941406 25.332031 C 174.941406 25.582031 174.863281 25.761719 174.710938 25.855469 C 174.570312 25.953125 174.320312 26 173.960938 26 L 171.941406 26 C 171.550781 26 171.300781 25.957031 171.191406 25.875 C 171.078125 25.78125 171.023438 25.597656 171.023438 25.332031 C 171.023438 25.097656 171.085938 24.9375 171.210938 24.855469 C 171.347656 24.761719 171.59375 24.707031 171.941406 24.707031 L 172.253906 24.707031 L 172.253906 20.917969 C 172.253906 20.207031 172.09375 19.667969 171.773438 19.292969 C 171.453125 18.917969 170.988281 18.730469 170.378906 18.730469 C 169.753906 18.730469 169.203125 18.949219 168.734375 19.375 C 168.257812 19.792969 168.023438 20.308594 168.023438 20.917969 L 168.023438 24.707031 L 168.335938 24.707031 C 168.710938 24.707031 168.960938 24.761719 169.085938 24.855469 C 169.210938 24.9375 169.273438 25.097656 169.273438 25.332031 C 169.273438 25.597656 169.21875 25.78125 169.109375 25.875 C 168.992188 25.957031 168.734375 26 168.316406 26 L 166.148438 26 C 165.898438 26 165.710938 25.953125 165.585938 25.855469 C 165.460938 25.746094 165.398438 25.574219 165.398438 25.332031 C 165.398438 25.097656 165.46875 24.9375 165.609375 24.855469 C 165.757812 24.761719 166.046875 24.707031 166.460938 24.707031 Z M 166.648438 24.707031 "/>
<path style=" stroke:none;fill-rule:nonzero;fill:rgb(0%,0%,0%);fill-opacity:1;" d="M 178.164062 22.1875 C 178.207031 23.0625 178.496094 23.746094 179.039062 24.230469 C 179.589844 24.703125 180.335938 24.9375 181.269531 24.9375 C 181.988281 24.9375 182.769531 24.75 183.601562 24.375 C 184.433594 23.988281 184.941406 23.792969 185.121094 23.792969 C 185.300781 23.792969 185.457031 23.855469 185.582031 23.980469 C 185.707031 24.09375 185.769531 24.230469 185.769531 24.394531 C 185.769531 24.578125 185.695312 24.746094 185.558594 24.894531 C 185.433594 25.035156 185.230469 25.175781 184.957031 25.3125 C 184.339844 25.605469 183.710938 25.832031 183.058594 26 C 182.417969 26.152344 181.777344 26.230469 181.144531 26.230469 C 179.769531 26.230469 178.664062 25.832031 177.832031 25.042969 C 176.996094 24.238281 176.582031 23.175781 176.582031 21.855469 C 176.582031 20.511719 177.019531 19.417969 177.894531 18.582031 C 178.777344 17.75 179.925781 17.332031 181.332031 17.332031 C 182.621094 17.332031 183.683594 17.722656 184.519531 18.5 C 185.363281 19.28125 185.789062 20.222656 185.789062 21.332031 C 185.789062 21.667969 185.714844 21.894531 185.582031 22.019531 C 185.441406 22.136719 185.050781 22.1875 184.414062 22.1875 Z M 178.207031 21 L 184.144531 21 C 184.042969 20.28125 183.738281 19.699219 183.226562 19.25 C 182.710938 18.808594 182.082031 18.582031 181.332031 18.582031 C 180.523438 18.582031 179.839844 18.800781 179.289062 19.230469 C 178.746094 19.660156 178.382812 20.25 178.207031 21 Z M 178.207031 21 "/>
<path style=" stroke:none;fill-rule:nonzero;fill:rgb(0%,0%,0%);fill-opacity:1;" d="M 204.128906 24.730469 C 204.988281 24.730469 205.683594 24.457031 206.214844 23.917969 C 206.753906 23.375 207.027344 22.675781 207.027344 21.8125 C 207.027344 20.96875 206.753906 20.269531 206.214844 19.730469 C 205.671875 19.1875 204.972656 18.917969 204.128906 18.917969 C 203.28125 18.917969 202.589844 19.1875 202.046875 19.730469 C 201.515625 20.269531 201.253906 20.96875 201.253906 21.8125 C 201.253906 22.660156 201.515625 23.363281 202.046875 23.917969 C 202.589844 24.457031 203.28125 24.730469 204.128906 24.730469 Z M 201.296875 18.894531 C 201.628906 18.46875 202.050781 18.140625 202.566406 17.917969 C 203.078125 17.699219 203.65625 17.582031 204.296875 17.582031 C 205.515625 17.582031 206.53125 17.996094 207.339844 18.8125 C 208.15625 19.636719 208.566406 20.65625 208.566406 21.875 C 208.566406 23.074219 208.152344 24.082031 207.316406 24.917969 C 206.484375 25.75 205.464844 26.167969 204.253906 26.167969 C 203.613281 26.167969 203.058594 26.050781 202.589844 25.832031 C 202.113281 25.597656 201.722656 25.261719 201.421875 24.8125 L 201.421875 25.542969 C 201.421875 25.699219 201.390625 25.8125 201.339844 25.894531 C 201.28125 25.96875 201.183594 26 201.046875 26 L 199.378906 26 C 199.140625 26 198.96875 25.949219 198.859375 25.832031 C 198.746094 25.722656 198.691406 25.558594 198.691406 25.332031 C 198.691406 25.097656 198.761719 24.9375 198.902344 24.855469 C 199.035156 24.761719 199.316406 24.707031 199.734375 24.707031 L 199.921875 24.707031 L 199.921875 15.375 L 199.734375 15.375 C 199.328125 15.375 199.050781 15.328125 198.902344 15.230469 C 198.746094 15.136719 198.671875 14.96875 198.671875 14.730469 C 198.671875 14.511719 198.722656 14.34375 198.839844 14.230469 C 198.964844 14.121094 199.140625 14.0625 199.378906 14.0625 L 200.777344 14.0625 C 200.953125 14.0625 201.089844 14.097656 201.171875 14.167969 C 201.253906 14.222656 201.296875 14.3125 201.296875 14.4375 Z M 201.296875 18.894531 "/>
<path style=" stroke:none;fill-rule:nonzero;fill:rgb(0%,0%,0%);fill-opacity:1;" d="M 214.164062 28.332031 L 214.5625 28.332031 C 215.003906 28.332031 215.300781 28.378906 215.457031 28.480469 C 215.609375 28.574219 215.6875 28.75 215.6875 29 C 215.6875 29.207031 215.625 29.363281 215.5 29.480469 C 215.375 29.589844 215.191406 29.644531 214.957031 29.644531 L 210.769531 29.644531 C 210.476562 29.644531 210.273438 29.59375 210.164062 29.5 C 210.050781 29.402344 210 29.234375 210 29 C 210 28.777344 210.050781 28.609375 210.164062 28.5 C 210.289062 28.386719 210.46875 28.332031 210.707031 28.332031 L 212.6875 28.332031 L 214.164062 25.417969 L 210.8125 18.875 C 210.40625 18.875 210.128906 18.828125 209.976562 18.730469 C 209.835938 18.636719 209.769531 18.457031 209.769531 18.207031 C 209.769531 18 209.820312 17.847656 209.9375 17.75 C 210.0625 17.640625 210.25 17.582031 210.5 17.582031 L 213.039062 17.582031 C 213.382812 17.582031 213.613281 17.636719 213.726562 17.730469 C 213.835938 17.8125 213.894531 17.972656 213.894531 18.207031 C 213.894531 18.457031 213.816406 18.636719 213.664062 18.730469 C 213.507812 18.828125 213.234375 18.875 212.832031 18.875 L 212.5 18.875 L 214.957031 23.894531 L 217.476562 18.875 L 217.125 18.875 C 216.707031 18.875 216.414062 18.828125 216.25 18.730469 C 216.09375 18.636719 216.019531 18.457031 216.019531 18.207031 C 216.019531 17.972656 216.070312 17.8125 216.1875 17.730469 C 216.3125 17.636719 216.546875 17.582031 216.894531 17.582031 L 219.144531 17.582031 C 219.394531 17.582031 219.570312 17.640625 219.6875 17.75 C 219.8125 17.847656 219.875 18 219.875 18.207031 C 219.875 18.449219 219.800781 18.613281 219.664062 18.707031 C 219.523438 18.808594 219.289062 18.863281 218.957031 18.875 Z M 214.164062 28.332031 "/>
<path style=" stroke:none;fill-rule:nonzero;fill:rgb(0%,0%,0%);fill-opacity:1;" d="M 233.820312 24.707031 L 233.820312 15.375 L 233.652344 15.375 C 233.234375 15.375 232.949219 15.328125 232.796875 15.230469 C 232.640625 15.136719 232.570312 14.96875 232.570312 14.730469 C 232.570312 14.511719 232.632812 14.34375 232.757812 14.230469 C 232.882812 14.121094 233.058594 14.0625 233.296875 14.0625 L 234.671875 14.0625 C 234.839844 14.0625 234.964844 14.097656 235.046875 14.167969 C 235.140625 14.238281 235.195312 14.328125 235.195312 14.4375 L 235.195312 18.5625 C 235.636719 18.160156 236.074219 17.863281 236.507812 17.667969 C 236.949219 17.457031 237.402344 17.355469 237.859375 17.355469 C 238.777344 17.355469 239.496094 17.640625 240.027344 18.207031 C 240.554688 18.78125 240.820312 19.574219 240.820312 20.582031 L 240.820312 24.707031 L 241.257812 24.707031 C 241.558594 24.707031 241.777344 24.765625 241.902344 24.875 C 242.039062 24.972656 242.109375 25.125 242.109375 25.332031 C 242.109375 25.558594 242.046875 25.722656 241.921875 25.832031 C 241.796875 25.949219 241.617188 26 241.382812 26 L 238.945312 26 C 238.664062 26 238.46875 25.953125 238.359375 25.855469 C 238.261719 25.761719 238.214844 25.582031 238.214844 25.332031 C 238.214844 25.097656 238.277344 24.9375 238.402344 24.855469 C 238.527344 24.761719 238.761719 24.707031 239.109375 24.707031 L 239.445312 24.707031 L 239.445312 20.917969 C 239.445312 20.207031 239.277344 19.667969 238.945312 19.292969 C 238.621094 18.917969 238.15625 18.730469 237.546875 18.730469 C 236.921875 18.730469 236.371094 18.949219 235.902344 19.375 C 235.429688 19.792969 235.195312 20.308594 235.195312 20.917969 L 235.195312 24.707031 L 235.527344 24.707031 C 235.886719 24.707031 236.132812 24.761719 236.257812 24.855469 C 236.382812 24.9375 236.445312 25.097656 236.445312 25.332031 C 236.445312 25.582031 236.390625 25.761719 236.296875 25.855469 C 236.199219 25.953125 236.007812 26 235.714844 26 L 233.296875 26 C 233.058594 26 232.882812 25.949219 232.757812 25.832031 C 232.640625 25.722656 232.589844 25.558594 232.589844 25.332031 C 232.589844 25.097656 232.65625 24.9375 232.796875 24.855469 C 232.933594 24.761719 233.214844 24.707031 233.632812 24.707031 Z M 233.820312 24.707031 "/>
<path style=" stroke:none;fill-rule:nonzero;fill:rgb(0%,0%,0%);fill-opacity:1;" d="M 259.390625 18.917969 C 258.597656 18.917969 257.941406 19.167969 257.429688 19.667969 C 256.929688 20.15625 256.679688 20.792969 256.679688 21.582031 C 256.679688 22.347656 256.929688 22.980469 257.429688 23.480469 C 257.941406 23.980469 258.597656 24.230469 259.390625 24.230469 C 260.179688 24.230469 260.828125 23.980469 261.328125 23.480469 C 261.835938 22.980469 262.097656 22.347656 262.097656 21.582031 C 262.097656 20.808594 261.835938 20.167969 261.328125 19.667969 C 260.828125 19.167969 260.179688 18.917969 259.390625 18.917969 Z M 263.347656 25.519531 C 263.347656 26.363281 263.304688 26.964844 263.222656 27.3125 C 263.140625 27.671875 262.992188 27.988281 262.785156 28.269531 C 262.453125 28.714844 261.972656 29.050781 261.347656 29.292969 C 260.734375 29.527344 260.015625 29.644531 259.179688 29.644531 C 258.484375 29.644531 257.976562 29.574219 257.660156 29.4375 C 257.351562 29.296875 257.203125 29.082031 257.203125 28.792969 C 257.203125 28.609375 257.273438 28.441406 257.429688 28.292969 C 257.582031 28.152344 257.765625 28.082031 257.972656 28.082031 C 258.140625 28.082031 258.390625 28.105469 258.722656 28.144531 C 259.066406 28.199219 259.332031 28.230469 259.515625 28.230469 C 260.398438 28.230469 261.035156 28.019531 261.410156 27.605469 C 261.796875 27.1875 261.992188 26.480469 261.992188 25.480469 L 261.992188 24.375 C 261.617188 24.808594 261.203125 25.125 260.742188 25.332031 C 260.296875 25.53125 259.785156 25.625 259.203125 25.625 C 258.0625 25.625 257.117188 25.25 256.367188 24.5 C 255.628906 23.738281 255.265625 22.78125 255.265625 21.625 C 255.265625 20.457031 255.644531 19.496094 256.410156 18.730469 C 257.171875 17.953125 258.125 17.5625 259.265625 17.5625 C 259.734375 17.5625 260.191406 17.65625 260.640625 17.832031 C 261.082031 18 261.535156 18.261719 261.992188 18.605469 L 261.992188 17.957031 C 261.992188 17.824219 262.023438 17.722656 262.097656 17.667969 C 262.179688 17.613281 262.3125 17.582031 262.492188 17.582031 L 263.867188 17.582031 C 264.117188 17.582031 264.296875 17.640625 264.410156 17.75 C 264.535156 17.847656 264.597656 18 264.597656 18.207031 C 264.597656 18.457031 264.519531 18.636719 264.367188 18.730469 C 264.210938 18.828125 263.929688 18.875 263.515625 18.875 L 263.347656 18.875 Z M 263.347656 25.519531 "/>
<path style=" stroke:none;fill-rule:nonzero;fill:rgb(0%,0%,0%);fill-opacity:1;" d="M 282 21.375 L 280.835938 25.707031 C 280.761719 25.933594 280.667969 26.082031 280.542969 26.167969 C 280.429688 26.261719 280.25 26.3125 280 26.3125 C 279.777344 26.3125 279.605469 26.253906 279.480469 26.144531 C 279.367188 26.03125 279.261719 25.828125 279.167969 25.519531 L 277.085938 18.875 L 277 18.875 C 276.734375 18.875 276.546875 18.828125 276.4375 18.730469 C 276.328125 18.621094 276.273438 18.449219 276.273438 18.207031 C 276.273438 18 276.335938 17.847656 276.460938 17.75 C 276.570312 17.640625 276.742188 17.582031 276.980469 17.582031 L 279.417969 17.582031 C 279.734375 17.582031 279.949219 17.636719 280.0625 17.730469 C 280.1875 17.8125 280.25 17.972656 280.25 18.207031 C 280.25 18.363281 280.214844 18.496094 280.148438 18.605469 C 280.074219 18.703125 279.992188 18.765625 279.898438 18.792969 C 279.796875 18.824219 279.679688 18.84375 279.542969 18.855469 C 279.402344 18.871094 279.234375 18.875 279.042969 18.875 L 278.5 18.875 L 280.085938 24.332031 L 281.25 20.375 C 281.320312 20.140625 281.40625 19.980469 281.523438 19.894531 C 281.648438 19.800781 281.835938 19.75 282.085938 19.75 C 282.292969 19.75 282.460938 19.8125 282.585938 19.9375 C 282.710938 20.050781 282.820312 20.25 282.917969 20.542969 L 284.0625 24.332031 L 285.5625 18.875 L 284.960938 18.875 C 284.542969 18.875 284.257812 18.828125 284.105469 18.730469 C 283.964844 18.636719 283.898438 18.457031 283.898438 18.207031 C 283.898438 17.972656 283.945312 17.8125 284.042969 17.730469 C 284.152344 17.636719 284.367188 17.582031 284.6875 17.582031 L 287.125 17.582031 C 287.320312 17.582031 287.460938 17.640625 287.542969 17.75 C 287.636719 17.847656 287.6875 18 287.6875 18.207031 C 287.6875 18.449219 287.632812 18.613281 287.523438 18.707031 C 287.421875 18.808594 287.21875 18.863281 286.917969 18.875 L 284.855469 25.707031 C 284.78125 25.933594 284.6875 26.082031 284.5625 26.167969 C 284.449219 26.261719 284.277344 26.3125 284.042969 26.3125 C 283.820312 26.3125 283.636719 26.25 283.5 26.125 C 283.375 26.011719 283.273438 25.8125 283.1875 25.519531 Z M 282 21.375 "/>
<path style=" stroke:none;fill-rule:nonzero;fill:rgb(0%,0%,0%);fill-opacity:1;" d="M 290.183594 22.1875 C 290.222656 23.0625 290.515625 23.746094 291.058594 24.230469 C 291.609375 24.703125 292.355469 24.9375 293.285156 24.9375 C 294.003906 24.9375 294.785156 24.75 295.621094 24.375 C 296.453125 23.988281 296.957031 23.792969 297.140625 23.792969 C 297.316406 23.792969 297.472656 23.855469 297.597656 23.980469 C 297.722656 24.09375 297.785156 24.230469 297.785156 24.394531 C 297.785156 24.578125 297.714844 24.746094 297.578125 24.894531 C 297.453125 25.035156 297.25 25.175781 296.972656 25.3125 C 296.359375 25.605469 295.730469 25.832031 295.078125 26 C 294.4375 26.152344 293.796875 26.230469 293.160156 26.230469 C 291.785156 26.230469 290.683594 25.832031 289.847656 25.042969 C 289.015625 24.238281 288.597656 23.175781 288.597656 21.855469 C 288.597656 20.511719 289.035156 19.417969 289.910156 18.582031 C 290.796875 17.75 291.941406 17.332031 293.347656 17.332031 C 294.640625 17.332031 295.703125 17.722656 296.535156 18.5 C 297.378906 19.28125 297.808594 20.222656 297.808594 21.332031 C 297.808594 21.667969 297.734375 21.894531 297.597656 22.019531 C 297.457031 22.136719 297.066406 22.1875 296.433594 22.1875 Z M 290.222656 21 L 296.160156 21 C 296.0625 20.28125 295.753906 19.699219 295.246094 19.25 C 294.730469 18.808594 294.097656 18.582031 293.347656 18.582031 C 292.542969 18.582031 291.859375 18.800781 291.308594 19.230469 C 290.765625 19.660156 290.402344 20.25 290.222656 21 Z M 290.222656 21 "/>
<path style=" stroke:none;fill-rule:nonzero;fill:rgb(0%,0%,0%);fill-opacity:1;" d="M 303.84375 15.375 L 302.300781 15.375 C 301.71875 15.375 301.347656 15.332031 301.195312 15.25 C 301.039062 15.15625 300.96875 14.980469 300.96875 14.730469 C 300.96875 14.511719 301.03125 14.34375 301.15625 14.230469 C 301.28125 14.121094 301.457031 14.0625 301.695312 14.0625 L 304.695312 14.0625 C 304.863281 14.0625 304.988281 14.097656 305.070312 14.167969 C 305.164062 14.238281 305.21875 14.328125 305.21875 14.4375 L 305.21875 24.707031 L 308.09375 24.707031 C 308.3125 24.707031 308.476562 24.765625 308.59375 24.875 C 308.703125 24.972656 308.757812 25.125 308.757812 25.332031 C 308.757812 25.582031 308.703125 25.761719 308.59375 25.855469 C 308.492188 25.953125 308.300781 26 308.007812 26 L 301.28125 26 C 301.039062 26 300.863281 25.949219 300.738281 25.832031 C 300.613281 25.722656 300.550781 25.558594 300.550781 25.332031 C 300.550781 25.125 300.613281 24.972656 300.738281 24.875 C 300.875 24.765625 301.070312 24.707031 301.320312 24.707031 L 303.84375 24.707031 Z M 303.84375 15.375 "/>
<path style=" stroke:none;fill-rule:nonzero;fill:rgb(0%,0%,0%);fill-opacity:1;" d="M 315.042969 15.375 L 313.503906 15.375 C 312.917969 15.375 312.550781 15.332031 312.398438 15.25 C 312.242188 15.15625 312.167969 14.980469 312.167969 14.730469 C 312.167969 14.511719 312.230469 14.34375 312.355469 14.230469 C 312.480469 14.121094 312.660156 14.0625 312.898438 14.0625 L 315.898438 14.0625 C 316.066406 14.0625 316.191406 14.097656 316.273438 14.167969 C 316.367188 14.238281 316.417969 14.328125 316.417969 14.4375 L 316.417969 24.707031 L 319.292969 24.707031 C 319.511719 24.707031 319.679688 24.765625 319.792969 24.875 C 319.902344 24.972656 319.960938 25.125 319.960938 25.332031 C 319.960938 25.582031 319.902344 25.761719 319.792969 25.855469 C 319.695312 25.953125 319.503906 26 319.210938 26 L 312.480469 26 C 312.242188 26 312.066406 25.949219 311.941406 25.832031 C 311.816406 25.722656 311.753906 25.558594 311.753906 25.332031 C 311.753906 25.125 311.816406 24.972656 311.941406 24.875 C 312.074219 24.765625 312.273438 24.707031 312.523438 24.707031 L 315.042969 24.707031 Z M 315.042969 15.375 "/>
<path style=" stroke:none;fill-rule:nonzero;fill:rgb(0%,0%,0%);fill-opacity:1;" d="M 322.890625 25.332031 L 322.890625 23.730469 C 322.890625 23.453125 322.9375 23.261719 323.039062 23.144531 C 323.132812 23.035156 323.296875 22.980469 323.539062 22.980469 C 323.773438 22.980469 323.964844 23.144531 324.121094 23.480469 C 324.214844 23.6875 324.308594 23.847656 324.390625 23.957031 C 324.640625 24.28125 325.015625 24.542969 325.515625 24.75 C 326.015625 24.949219 326.5625 25.042969 327.164062 25.042969 C 327.796875 25.042969 328.3125 24.910156 328.703125 24.644531 C 329.089844 24.386719 329.289062 24.035156 329.289062 23.605469 C 329.289062 23.175781 329.125 22.871094 328.808594 22.6875 C 328.5 22.511719 327.976562 22.417969 327.226562 22.417969 L 326.726562 22.417969 C 325.476562 22.417969 324.523438 22.203125 323.871094 21.769531 C 323.230469 21.34375 322.914062 20.71875 322.914062 19.894531 C 322.914062 19.09375 323.226562 18.46875 323.851562 18.019531 C 324.484375 17.578125 325.382812 17.355469 326.539062 17.355469 C 327.007812 17.355469 327.484375 17.425781 327.976562 17.5625 C 328.460938 17.6875 328.710938 17.75 328.726562 17.75 C 328.792969 17.75 328.917969 17.699219 329.101562 17.582031 C 329.292969 17.457031 329.480469 17.394531 329.664062 17.394531 C 329.871094 17.394531 330.023438 17.472656 330.121094 17.625 C 330.230469 17.78125 330.289062 18.011719 330.289062 18.3125 L 330.289062 19.375 C 330.289062 19.699219 330.234375 19.933594 330.140625 20.082031 C 330.042969 20.222656 329.882812 20.292969 329.664062 20.292969 C 329.480469 20.292969 329.257812 20.136719 328.996094 19.8125 C 328.796875 19.605469 328.648438 19.449219 328.539062 19.332031 C 328.214844 19.042969 327.871094 18.832031 327.496094 18.707031 C 327.132812 18.574219 326.710938 18.5 326.226562 18.5 C 325.640625 18.5 325.171875 18.625 324.828125 18.875 C 324.480469 19.125 324.308594 19.449219 324.308594 19.832031 C 324.308594 20.222656 324.484375 20.5 324.851562 20.667969 C 325.210938 20.824219 325.980469 20.910156 327.164062 20.9375 C 328.421875 20.96875 329.351562 21.1875 329.933594 21.605469 C 330.515625 22.011719 330.808594 22.640625 330.808594 23.5 C 330.808594 24.324219 330.480469 24.980469 329.828125 25.480469 C 329.1875 25.96875 328.328125 26.207031 327.246094 26.207031 C 326.898438 26.207031 326.507812 26.171875 326.078125 26.105469 C 325.648438 26.046875 325.109375 25.949219 324.476562 25.792969 C 324.265625 25.933594 324.085938 26.03125 323.933594 26.105469 C 323.777344 26.171875 323.648438 26.207031 323.539062 26.207031 C 323.328125 26.207031 323.167969 26.136719 323.058594 26 C 322.945312 25.847656 322.890625 25.625 322.890625 25.332031 Z M 322.890625 25.332031 "/>
<path style="fill:none;stroke-width:1;stroke-linecap:round;stroke-linejoin:miter;stroke:rgb(0%,0%,0%);stroke-opacity:1;stroke-miterlimit:10;" d="M -101.217773 208.352539 L 136.101562 208.352539 " transform="matrix(1.333333,0,0,1.333333,144,-174.666667)"/>
<path style="fill-rule:nonzero;fill:rgb(0%,0%,0%);fill-opacity:1;stroke-width:1;stroke-linecap:butt;stroke-linejoin:miter;stroke:rgb(0%,0%,0%);stroke-opacity:1;stroke-miterlimit:10;" d="M 140.100586 208.352539 L 136.101562 206.852539 L 136.101562 209.852539 Z M 140.100586 208.352539 " transform="matrix(1.333333,0,0,1.333333,144,-174.666667)"/>
<path style="fill:none;stroke-width:1;stroke-linecap:round;stroke-linejoin:miter;stroke:rgb(0%,0%,0%);stroke-opacity:1;stroke-miterlimit:10;" d="M -101.217773 171.573242 L -81.899414 171.573242 " transform="matrix(1.333333,0,0,1.333333,144,-174.666667)"/>
<path style="fill-rule:nonzero;fill:rgb(0%,0%,0%);fill-opacity:1;stroke-width:1;stroke-linecap:butt;stroke-linejoin:miter;stroke:rgb(0%,0%,0%);stroke-opacity:1;stroke-miterlimit:10;" d="M -77.897461 171.573242 L -81.899414 170.073242 L -81.899414 173.073242 Z M -77.897461 171.573242 " transform="matrix(1.333333,0,0,1.333333,144,-174.666667)"/>
<path style="fill:none;stroke-width:1;stroke-linecap:round;stroke-linejoin:miter;stroke:rgb(0%,0%,0%);stroke-opacity:1;stroke-miterlimit:10;" d="M -75.999023 171.5 L -41.118164 171.561523 " transform="matrix(1.333333,0,0,1.333333,144,-174.666667)"/>
<path style="fill-rule:nonzero;fill:rgb(0%,0%,0%);fill-opacity:1;stroke-width:1;stroke-linecap:butt;stroke-linejoin:miter;stroke:rgb(0%,0%,0%);stroke-opacity:1;stroke-miterlimit:10;" d="M -37.116211 171.570312 L -41.118164 170.061523 L -41.121094 173.061523 Z M -37.116211 171.570312 " transform="matrix(1.333333,0,0,1.333333,144,-174.666667)"/>
<path style="fill:none;stroke-width:1;stroke-linecap:round;stroke-linejoin:miter;stroke:rgb(0%,0%,0%);stroke-opacity:1;stroke-miterlimit:10;" d="M -34.6875 171.573242 L -22.397461 171.573242 " transform="matrix(1.333333,0,0,1.333333,144,-174.666667)"/>
<path style="fill-rule:nonzero;fill:rgb(0%,0%,0%);fill-opacity:1;stroke-width:1;stroke-linecap:butt;stroke-linejoin:miter;stroke:rgb(0%,0%,0%);stroke-opacity:1;stroke-miterlimit:10;" d="M -18.398438 171.573242 L -22.397461 170.073242 L -22.397461 173.073242 Z M -18.398438 171.573242 " transform="matrix(1.333333,0,0,1.333333,144,-174.666667)"/>
<path style="fill:none;stroke-width:1;stroke-linecap:round;stroke-linejoin:miter;stroke:rgb(0%,0%,0%);stroke-opacity:1;stroke-miterlimit:10;" d="M -16.5 171.5 L 33.723633 171.5 " transform="matrix(1.333333,0,0,1.333333,144,-174.666667)"/>
<path style="fill-rule:nonzero;fill:rgb(0%,0%,0%);fill-opacity:1;stroke-width:1;stroke-linecap:butt;stroke-linejoin:miter;stroke:rgb(0%,0%,0%);stroke-opacity:1;stroke-miterlimit:10;" d="M 37.722656 171.5 L 33.723633 170 L 33.723633 173 Z M 37.722656 171.5 " transform="matrix(1.333333,0,0,1.333333,144,-174.666667)"/>
<path style="fill:none;stroke-width:1;stroke-linecap:round;stroke-linejoin:miter;stroke:rgb(0%,0%,0%);stroke-opacity:1;stroke-miterlimit:10;" d="M 39.624023 171.5 L 51.911133 171.5 " transform="matrix(1.333333,0,0,1.333333,144,-174.666667)"/>
<path style="fill-rule:nonzero;fill:rgb(0%,0%,0%);fill-opacity:1;stroke-width:1;stroke-linecap:butt;stroke-linejoin:miter;stroke:rgb(0%,0%,0%);stroke-opacity:1;stroke-miterlimit:10;" d="M 55.910156 171.5 L 51.911133 170 L 51.911133 173 Z M 55.910156 171.5 " transform="matrix(1.333333,0,0,1.333333,144,-174.666667)"/>
<path style="fill:none;stroke-width:1;stroke-linecap:round;stroke-linejoin:miter;stroke:rgb(0%,0%,0%);stroke-opacity:1;stroke-miterlimit:10;" d="M 57.811523 171.573242 L 84.911133 171.573242 " transform="matrix(1.333333,0,0,1.333333,144,-174.666667)"/>
<path style="fill-rule:nonzero;fill:rgb(0%,0%,0%);fill-opacity:1;stroke-width:1;stroke-linecap:butt;stroke-linejoin:miter;stroke:rgb(0%,0%,0%);stroke-opacity:1;stroke-miterlimit:10;" d="M 88.910156 171.573242 L 84.911133 170.073242 L 84.911133 173.073242 Z M 88.910156 171.573242 " transform="matrix(1.333333,0,0,1.333333,144,-174.666667)"/>
<path style="fill:none;stroke-width:1;stroke-linecap:round;stroke-linejoin:miter;stroke:rgb(0%,0%,0%);stroke-opacity:1;stroke-miterlimit:10;" d="M 90.811523 171.573242 L 117.911133 171.573242 " transform="matrix(1.333333,0,0,1.333333,144,-174.666667)"/>
<path style="fill-rule:nonzero;fill:rgb(0%,0%,0%);fill-opacity:1;stroke-width:1;stroke-linecap:butt;stroke-linejoin:miter;stroke:rgb(0%,0%,0%);stroke-opacity:1;stroke-miterlimit:10;" d="M 121.910156 171.573242 L 117.911133 170.073242 L 117.911133 173.073242 Z M 121.910156 171.573242 " transform="matrix(1.333333,0,0,1.333333,144,-174.666667)"/>
<path style="fill:none;stroke-width:1;stroke-linecap:round;stroke-linejoin:miter;stroke:rgb(0%,0%,0%);stroke-opacity:1;stroke-miterlimit:10;" d="M -101.217773 189.924805 L -74.118164 189.924805 " transform="matrix(1.333333,0,0,1.333333,144,-174.666667)"/>
<path style="fill-rule:nonzero;fill:rgb(0%,0%,0%);fill-opacity:1;stroke-width:1;stroke-linecap:butt;stroke-linejoin:miter;stroke:rgb(0%,0%,0%);stroke-opacity:1;stroke-miterlimit:10;" d="M -70.116211 189.924805 L -74.118164 188.424805 L -74.118164 191.424805 Z M -70.116211 189.924805 " transform="matrix(1.333333,0,0,1.333333,144,-174.666667)"/>
<path style="fill:none;stroke-width:1;stroke-linecap:round;stroke-linejoin:miter;stroke:rgb(0%,0%,0%);stroke-opacity:1;stroke-miterlimit:10;" d="M -68.217773 189.924805 L -41.118164 189.924805 " transform="matrix(1.333333,0,0,1.333333,144,-174.666667)"/>
<path style="fill-rule:nonzero;fill:rgb(0%,0%,0%);fill-opacity:1;stroke-width:1;stroke-linecap:butt;stroke-linejoin:miter;stroke:rgb(0%,0%,0%);stroke-opacity:1;stroke-miterlimit:10;" d="M -37.116211 189.924805 L -41.118164 188.424805 L -41.118164 191.424805 Z M -37.116211 189.924805 " transform="matrix(1.333333,0,0,1.333333,144,-174.666667)"/>
<path style="fill:none;stroke-width:1;stroke-linecap:round;stroke-linejoin:miter;stroke:rgb(0%,0%,0%);stroke-opacity:1;stroke-miterlimit:10;" d="M -34.6875 189.924805 L -7.59082 189.924805 " transform="matrix(1.333333,0,0,1.333333,144,-174.666667)"/>
<path style="fill-rule:nonzero;fill:rgb(0%,0%,0%);fill-opacity:1;stroke-width:1;stroke-linecap:butt;stroke-linejoin:miter;stroke:rgb(0%,0%,0%);stroke-opacity:1;stroke-miterlimit:10;" d="M -3.588867 189.924805 L -7.59082 188.424805 L -7.59082 191.424805 Z M -3.588867 189.924805 " transform="matrix(1.333333,0,0,1.333333,144,-174.666667)"/>
<path style="fill:none;stroke-width:1;stroke-linecap:round;stroke-linejoin:miter;stroke:rgb(0%,0%,0%);stroke-opacity:1;stroke-miterlimit:10;" d="M -1.6875 189.924805 L 25.40918 189.924805 " transform="matrix(1.333333,0,0,1.333333,144,-174.666667)"/>
<path style="fill-rule:nonzero;fill:rgb(0%,0%,0%);fill-opacity:1;stroke-width:1;stroke-linecap:butt;stroke-linejoin:miter;stroke:rgb(0%,0%,0%);stroke-opacity:1;stroke-miterlimit:10;" d="M 29.411133 189.924805 L 25.40918 188.424805 L 25.40918 191.424805 Z M 29.411133 189.924805 " transform="matrix(1.333333,0,0,1.333333,144,-174.666667)"/>
<path style="fill:none;stroke-width:1;stroke-linecap:round;stroke-linejoin:miter;stroke:rgb(0%,0%,0%);stroke-opacity:1;stroke-miterlimit:10;" d="M 31.842773 189.924805 L 58.942383 189.924805 " transform="matrix(1.333333,0,0,1.333333,144,-174.666667)"/>
<path style="fill-rule:nonzero;fill:rgb(0%,0%,0%);fill-opacity:1;stroke-width:1;stroke-linecap:butt;stroke-linejoin:miter;stroke:rgb(0%,0%,0%);stroke-opacity:1;stroke-miterlimit:10;" d="M 62.941406 189.924805 L 58.942383 188.424805 L 58.942383 191.424805 Z M 62.941406 189.924805 " transform="matrix(1.333333,0,0,1.333333,144,-174.666667)"/>
<path style="fill:none;stroke-width:1;stroke-linecap:round;stroke-linejoin:miter;stroke:rgb(0%,0%,0%);stroke-opacity:1;stroke-miterlimit:10;" d="M 65.030273 189.924805 L 92.132812 189.924805 " transform="matrix(1.333333,0,0,1.333333,144,-174.666667)"/>
<path style="fill-rule:nonzero;fill:rgb(0%,0%,0%);fill-opacity:1;stroke-width:1;stroke-linecap:butt;stroke-linejoin:miter;stroke:rgb(0%,0%,0%);stroke-opacity:1;stroke-miterlimit:10;" d="M 96.131836 189.924805 L 92.132812 188.424805 L 92.132812 191.424805 Z M 96.131836 189.924805 " transform="matrix(1.333333,0,0,1.333333,144,-174.666667)"/>
<path style="fill:none;stroke-width:1;stroke-linecap:round;stroke-linejoin:miter;stroke:rgb(0%,0%,0%);stroke-opacity:1;stroke-miterlimit:10;" d="M 99.28125 189.924805 L 136.101562 189.924805 " transform="matrix(1.333333,0,0,1.333333,144,-174.666667)"/>
<path style="fill-rule:nonzero;fill:rgb(0%,0%,0%);fill-opacity:1;stroke-width:1;stroke-linecap:butt;stroke-linejoin:miter;stroke:rgb(0%,0%,0%);stroke-opacity:1;stroke-miterlimit:10;" d="M 140.100586 189.924805 L 136.101562 188.424805 L 136.101562 191.424805 Z M 140.100586 189.924805 " transform="matrix(1.333333,0,0,1.333333,144,-174.666667)"/>
<path style="fill:none;stroke-width:1;stroke-linecap:round;stroke-linejoin:miter;stroke:rgb(0%,0%,0%);stroke-opacity:1;stroke-miterlimit:10;" d="M 123.811523 171.573242 L 136.101562 171.523438 " transform="matrix(1.333333,0,0,1.333333,144,-174.666667)"/>
<path style="fill-rule:nonzero;fill:rgb(0%,0%,0%);fill-opacity:1;stroke-width:1;stroke-linecap:butt;stroke-linejoin:miter;stroke:rgb(0%,0%,0%);stroke-opacity:1;stroke-miterlimit:10;" d="M 140.100586 171.508789 L 136.092773 170.023438 L 136.104492 173.023438 Z M 140.100586 171.508789 " transform="matrix(1.333333,0,0,1.333333,144,-174.666667)"/>
</g>
</svg>
